arm26_optimize_states
version=1
nRows=16
nColumns=21
inDegrees=yes

# SIMM Motion File Header:
name arm26_optimize_states
datacolumns 21
datarows 16
otherdata 1
range 0.20942101 0.24890630
endheader
time	r_shoulder_elev	r_elbow_flex	r_shoulder_elev_u	r_elbow_flex_u	TRIlong.activation	TRIlong.fiber_length	TRIlat.activation	TRIlat.fiber_length	TRImed.activation	TRImed.fiber_length	BIClong.activation	BIClong.fiber_length	BICshort.activation	BICshort.fiber_length	BRA.activation	BRA.fiber_length	DeltAnt.activation	DeltAnt.fiber_length	DeltPost.activation	DeltPost.fiber_length
      0.20942101	      4.11892486	    -11.38904754	     23.37114808	    -50.84455803	      0.01243378	      0.13636827	      0.01243378	      0.06756984	      0.01243378	      0.06262596	      0.01243378	      0.14543892	      0.01243378	      0.14871225	      0.01243378	      0.08607550	      0.01243378	      0.17820284	      0.01243378	      0.11232254
      0.21211084	      4.18152069	    -11.52455132	     23.16897650	    -49.90244263	      0.01235037	      0.13638549	      0.01235037	      0.06754672	      0.01235037	      0.06260292	      0.01235037	      0.14542860	      0.01235037	      0.14871700	      0.01235037	      0.08606111	      0.01235037	      0.17816488	      0.01235037	      0.11237555
      0.21480067	      4.24355699	    -11.65748407	     22.95592596	    -48.93461425	      0.01226983	      0.13640319	      0.01226983	      0.06752439	      0.01226983	      0.06258067	      0.01226983	      0.14541809	      0.01226983	      0.14872147	      0.01226983	      0.08604686	      0.01226983	      0.17812772	      0.01226983	      0.11242803
      0.21749051	      4.30500339	    -11.78777444	     22.72944539	    -47.93581696	      0.01219208	      0.13642131	      0.01219208	      0.06750286	      0.01219208	      0.06255922	      0.01219208	      0.14540743	      0.01219208	      0.14872568	      0.01219208	      0.08603276	      0.01219208	      0.17809030	      0.01219208	      0.11247995
      0.21982657	      4.35786302	    -11.89872336	     22.52455455	    -47.04904036	      0.01212673	      0.13643739	      0.01212673	      0.06748480	      0.01212673	      0.06254122	      0.01212673	      0.14539805	      0.01212673	      0.14872913	      0.01212673	      0.08602066	      0.01212673	      0.17805862	      0.01212673	      0.11252457
      0.22216264	      4.41023295	    -12.00757520	     22.30993005	    -46.13991430	      0.01206334	      0.13645376	      0.01206334	      0.06746733	      0.01206334	      0.06252382	      0.01206334	      0.14538859	      0.01206334	      0.14873238	      0.01206334	      0.08600871	      0.01206334	      0.17802684	      0.01206334	      0.11256875
      0.22502461	      4.47369403	    -12.13800223	     22.03594237	    -45.00045745	      0.01198826	      0.13647419	      0.01198826	      0.06744672	      0.01198826	      0.06250329	      0.01198826	      0.14537687	      0.01198826	      0.14873613	      0.01198826	      0.08599426	      0.01198826	      0.17798856	      0.01198826	      0.11262223
      0.22788658	      4.53635257	    -12.26512579	     21.74845326	    -43.83006652	      0.01191593	      0.13649500	      0.01191593	      0.06742698	      0.01191593	      0.06248362	      0.01191593	      0.14536505	      0.01191593	      0.14873961	      0.01191593	      0.08598007	      0.01191593	      0.17795041	      0.01191593	      0.11267499
      0.23029550	      4.58844241	    -12.36950161	     21.49793262	    -42.82513755	      0.01185710	      0.13651278	      0.01185710	      0.06741103	      0.01185710	      0.06246773	      0.01185710	      0.14535504	      0.01185710	      0.14874234	      0.01185710	      0.08596832	      0.01185710	      0.17791909	      0.01185710	      0.11271881
      0.23270441	      4.63991770	    -12.47143140	     21.23789561	    -41.79859777	      0.01180009	      0.13653079	      0.01180009	      0.06739567	      0.01180009	      0.06245244	      0.01180009	      0.14534498	      0.01180009	      0.14874491	      0.01180009	      0.08595677	      0.01180009	      0.17788774	      0.01180009	      0.11276209
      0.23511332	      4.69075689	    -12.57086615	     20.97007137	    -40.75418064	      0.01174484	      0.13654900	      0.01174484	      0.06738091	      0.01174484	      0.06243774	      0.01174484	      0.14533489	      0.01174484	      0.14874731	      0.01174484	      0.08594543	      0.01174484	      0.17785700	      0.01174484	      0.11280480
      0.23832023	      4.75741736	    -12.69929321	     20.60017741	    -39.33354328	      0.01167392	      0.13657352	      0.01167392	      0.06736217	      0.01167392	      0.06241908	      0.01167392	      0.14532142	      0.01167392	      0.14875026	      0.01167392	      0.08593067	      0.01167392	      0.17781638	      0.01167392	      0.11286076
      0.24071930	      4.80649817	    -12.79236280	     20.31515192	    -38.25180350	      0.01162276	      0.13659204	      0.01162276	      0.06734881	      0.01162276	      0.06240578	      0.01162276	      0.14531133	      0.01162276	      0.14875230	      0.01162276	      0.08591989	      0.01162276	      0.17778678	      0.01162276	      0.11290193
      0.24311838	      4.85488540	    -12.88281522	     20.02170714	    -37.15118704	      0.01157318	      0.13661070	      0.01157318	      0.06733601	      0.01157318	      0.06239304	      0.01157318	      0.14530126	      0.01157318	      0.14875420	      0.01157318	      0.08590936	      0.01157318	      0.17775726	      0.01157318	      0.11294249
      0.24601234	      4.91230427	    -12.98838346	     19.65872656	    -35.80318029	      0.01151539	      0.13663335	      0.01151539	      0.06732131	      0.01151539	      0.06237840	      0.01151539	      0.14528912	      0.01151539	      0.14875631	      0.01151539	      0.08589698	      0.01151539	      0.17772250	      0.01151539	      0.11299060
      0.24890630	      4.96865751	    -13.09001665	     19.28440046	    -34.42992811	      0.01145973	      0.13665613	      0.01145973	      0.06730738	      0.01145973	      0.06236454	      0.01145973	      0.14527703	      0.01145973	      0.14875824	      0.01145973	      0.08588498	      0.01145973	      0.17768791	      0.01145973	      0.11303778
